<svg width="259" height="430" viewBox="0 0 259 430" fill="none" xmlns="http://www.w3.org/2000/svg">
<path fill-rule="evenodd" clip-rule="evenodd" d="M127.873 53.6991C123.067 48.0583 119.815 41.1455 120.358 33.3995C121.924 11.081 152.992 15.9908 159.036 27.2552C165.079 38.5197 164.361 67.0929 156.551 69.1061C153.436 69.909 146.8 67.9423 140.047 63.8717L144.286 93.8609H119.256L127.873 53.6991Z" fill="#B28B67"/>
<path fill-rule="evenodd" clip-rule="evenodd" d="M170.124 11.6395C169.606 9.81764 168.212 8.25774 166.333 7.79496C165.877 7.68271 165.407 7.63737 164.938 7.65627C164.77 7.66298 164.723 7.71147 164.644 7.59388C164.586 7.50669 164.585 7.29369 164.561 7.19123C164.486 6.87262 164.393 6.55798 164.277 6.25149C163.884 5.20615 163.224 4.281 162.427 3.50166C160.938 2.04367 158.925 1.03743 156.834 0.855385C155.689 0.755802 154.553 0.94175 153.471 1.31406C152.911 1.50678 152.368 1.74677 151.839 2.0121C151.679 2.09195 151.163 2.48309 151.003 2.45775C150.826 2.42981 150.471 1.99107 150.328 1.88094C148.553 0.519584 146.362 -0.0156577 144.152 0.0003477C141.658 0.0191347 139.255 0.143785 137.175 1.66451C136.734 1.98648 136.315 2.33899 135.916 2.71013C135.705 2.90553 135.502 3.10826 135.307 3.31941C135.19 3.4468 135.076 3.57707 134.966 3.71083C134.78 3.93787 134.81 4.01245 134.549 3.85404C133.547 3.24572 132.387 2.96122 131.218 3.10484C130.524 3.19017 129.849 3.39852 129.208 3.67275C128.99 3.7661 128.485 4.13847 128.252 4.1421C128.021 4.14566 127.523 3.80048 127.285 3.71274C126.001 3.23873 124.617 3.12189 123.268 3.34092C121.875 3.56693 120.508 4.12238 119.328 4.88993C118.761 5.25916 118.266 5.66824 117.868 6.21725C117.697 6.45429 117.541 6.70503 117.347 6.92481C117.233 7.0535 117.007 7.18554 116.946 7.34841C116.983 7.25088 115.424 6.64982 115.277 6.6114C114.493 6.40669 113.695 6.44819 112.927 6.70078C111.484 7.17575 110.243 8.24089 109.223 9.33295C108.699 9.89387 108.24 10.5139 107.851 11.1745C107.664 11.4909 107.494 11.8164 107.338 12.1487C107.262 12.3098 107.212 12.5112 107.112 12.6562C106.984 12.8431 106.898 12.8467 106.665 12.9282C105.484 13.342 104.407 14.0425 103.587 14.9889C102.758 15.9464 102.22 17.1256 101.994 18.3674C101.981 18.4405 101.973 18.7437 101.93 18.7833C101.871 18.8378 101.634 18.8137 101.544 18.8242C101.233 18.8607 100.924 18.915 100.619 18.9872C100.057 19.1202 99.5099 19.316 98.9925 19.572C96.9755 20.5699 95.5331 22.4408 94.8272 24.5461C94.0864 26.7554 94.0996 29.2865 94.9849 31.4546C95.1279 31.8048 95.298 32.1447 95.4979 32.4663C95.6206 32.6636 95.6602 32.6641 95.5805 32.8712C95.4917 33.1016 95.3294 33.3255 95.224 33.5506C94.8799 34.2853 94.6393 35.0645 94.4874 35.8604C94.2381 37.1658 94.1146 38.5377 94.3605 39.8531C94.4747 40.4639 94.6736 41.061 94.9772 41.605C95.1319 41.8824 95.313 42.1455 95.5175 42.3888C95.6236 42.5152 95.7364 42.6358 95.8543 42.7514C95.9217 42.8175 96.0101 42.8753 96.0675 42.949C96.2075 43.1289 96.2369 42.981 96.1647 43.2451C96.0638 43.6143 95.835 43.9786 95.6949 44.3379C95.5505 44.7082 95.42 45.0835 95.3006 45.4625C95.0589 46.23 94.8545 47.0114 94.7267 47.8062C94.4813 49.3322 94.5244 50.9582 95.2462 52.3587C95.5548 52.9578 95.9976 53.4833 96.5346 53.8921C96.7974 54.0921 97.0821 54.2645 97.3807 54.4061C97.5342 54.4789 97.7301 54.5102 97.8001 54.6586C97.8755 54.8182 97.7636 55.1351 97.7381 55.3135C97.5162 56.8656 97.4049 58.4952 97.8663 60.0162C98.2912 61.4172 99.2268 62.6541 100.442 63.473C102.798 65.0616 105.975 64.972 108.451 63.7002C109.096 63.3687 109.7 62.9571 110.239 62.4715C111.61 64.318 114.433 64.2596 116.438 63.7335C118.935 63.078 120.939 61.3413 122.094 59.0596C123.673 60.9816 126.986 60.358 128.081 58.2729C128.349 57.7626 128.508 57.2002 128.586 56.631C128.627 56.3317 128.601 56.0298 128.632 55.7329C128.672 55.3546 128.924 54.9869 129.07 54.6209C129.352 53.9086 129.528 53.1729 129.536 52.4046C129.54 52.0034 129.489 51.6125 129.451 51.2146C129.416 50.8564 129.516 50.5226 129.572 50.1691C128.932 50.2745 128.151 50.1018 127.548 49.9161C126.955 49.7338 126.401 49.2538 125.983 48.8154C125.012 47.7974 124.419 46.4629 124.014 45.1347C123.124 42.2195 123.489 38.722 126.421 37.1221C127.787 36.3768 131.879 36.3792 133.506 36.7476C135.216 37.1349 137.156 40.9094 137.251 41.2641C137.31 41.4837 137.28 41.7555 137.482 41.9018C137.925 42.2235 138.656 41.6652 138.983 41.3897C139.548 40.9142 139.95 40.2815 140.299 39.6401C141.058 38.243 141.67 36.7446 142.103 35.2151C142.436 34.0358 142.65 32.8198 143.085 31.6706C143.519 30.5271 144.203 29.5051 145.266 28.8573C146.422 28.1526 147.747 27.7815 149.017 27.3386C150.275 26.8997 151.512 26.3633 152.487 25.4321C152.701 25.2273 152.91 25.0097 153.082 24.7686C153.219 24.5783 153.353 24.214 153.561 24.0933C153.884 23.9055 154.355 24.3937 154.634 24.571C156.011 25.4456 157.16 26.6654 158.087 27.9979C159.008 29.3232 159.764 30.5984 160.379 32.0782C160.834 33.1757 161.119 34.5813 161.92 35.4808C162.278 35.8824 164.938 36.1254 165.8 35.7748C166.661 35.4241 167.627 34.5137 167.916 33.9431C168.212 33.3591 168.283 32.7175 168.156 32.0782C168.082 31.7021 167.93 31.3507 167.847 30.9813C167.777 30.671 167.713 30.3776 167.562 30.0933C167.276 29.5546 166.787 29.1673 166.197 29.0054C166.811 28.4395 167.32 27.7625 167.671 27.0057C168.037 26.2194 168.347 25.2633 168.435 24.4003C168.507 23.6994 168.396 22.9732 168.012 22.3708C167.61 21.739 166.897 21.3267 166.28 20.9326C167.222 20.1952 168.029 19.2985 168.692 18.3057C169.982 16.375 170.779 13.9413 170.124 11.6395Z" fill="#191847"/>
<path fill-rule="evenodd" clip-rule="evenodd" d="M110.991 180.164L161.135 312.848L196.283 410.643H216.324L168.01 180.164L110.991 180.164Z" fill="#1F28CF"/>
<path fill-rule="evenodd" clip-rule="evenodd" d="M98.598 180.164C98.053 225.69 98.447 286.985 97.177 289.823C96.3304 291.715 69.9958 313.271 18.1735 354.491L28.5033 372.056C90.0284 332.38 122.364 309.899 125.509 304.613C130.228 296.684 153.932 223.718 166.265 180.164H98.598Z" fill="#2B44FF"/>
<path fill-rule="evenodd" clip-rule="evenodd" d="M-1.19484e-05 366.311L17.4473 353.033L31.5249 369.81C32.6078 382.457 36.7953 396.642 44.0876 412.363L40.892 415.045L15.4183 384.686L8.3014 372.96L6.70359 374.3L-1.19484e-05 366.311Z" fill="#191847"/>
<path fill-rule="evenodd" clip-rule="evenodd" d="M194.423 429.415L195.466 407.515H217.366C227.751 414.815 241.309 420.725 258.039 425.244V429.415H218.409L204.852 427.33V429.415H194.423Z" fill="#191847"/>
<path fill-rule="evenodd" clip-rule="evenodd" d="M199.388 166.971L232.655 191.4C241.677 193.834 249.215 196.863 255.269 200.487C256.699 201.79 258.427 204.429 252.497 203.973C246.566 203.516 240.308 203.303 239.49 205.326C238.671 207.349 242.26 209.768 240.606 212.497C239.503 214.317 234.294 209.754 224.977 198.81L192.034 185.15L199.388 166.971ZM71.6614 167.814L93.4552 167.9C79.9985 211.34 72.7339 234.39 71.6614 237.048C69.2482 243.028 74.3548 252.136 76.5386 257.031C69.426 260.214 70.1839 248.427 61.2115 252.601C53.022 256.411 46.7922 263.315 37.3304 257.477C36.1671 256.759 34.8924 254.056 37.9723 251.944C45.6457 246.683 56.7035 237.474 58.1976 234.443C60.235 230.31 64.723 208.1 71.6614 167.814Z" fill="#B28B67"/>
<path fill-rule="evenodd" clip-rule="evenodd" d="M133.596 76.3649L142.614 74.8181C176.074 103.722 189.817 159.251 230.83 188.667L220.958 200.903C149.808 192.093 132.173 124.362 133.596 76.3649Z" fill="#E87613"/>
<path fill-rule="evenodd" clip-rule="evenodd" d="M94.2839 189.694C130.443 189.694 157.041 189.694 174.077 189.694C177.724 189.694 177.036 184.429 176.509 181.773C170.426 151.111 146.68 118.059 146.68 74.4134L123.664 70.8042C104.627 101.422 98.0434 139.119 94.2839 189.694Z" fill="#DDE3E9"/>
<path fill-rule="evenodd" clip-rule="evenodd" d="M94.9252 100.9C91.5823 99.939 88.9352 97.6979 86.9837 94.1766C78.5712 78.9972 81.6093 70.6397 90.5996 67.8926C99.5898 65.1455 107.607 70.8041 121.931 70.8041C122.71 70.8041 123.424 70.8529 124.072 70.9506L131.277 71.3618C151.95 141.424 157.651 188.168 148.381 211.595H85.5777C81.8566 220.272 78.2959 227.572 74.8955 233.496H57.7826C56.172 181.421 68.5529 137.222 94.9252 100.9Z" fill="#FF9B21"/>
<path fill-rule="evenodd" clip-rule="evenodd" d="M99.2536 175.613C101.229 192.139 104.439 204.133 108.884 211.595H85.5776C89.9181 201.474 94.4768 189.48 99.2536 175.613H99.2536Z" fill="black" fill-opacity="0.1"/>
</svg>
